<?xml version="1.0" standalone="no"?>
<!DOCTYPE svg PUBLIC "-//W3C//DTD SVG 20010904//EN"
 "http://www.w3.org/TR/2001/REC-SVG-20010904/DTD/svg10.dtd">
<svg version="1.0" xmlns="http://www.w3.org/2000/svg"
 width="180.000000pt" height="180.000000pt" viewBox="0 0 180.000000 180.000000"
 preserveAspectRatio="xMidYMid meet">
<metadata>
Created by potrace 1.11, written by Peter Selinger 2001-2013
</metadata>
<g transform="translate(0.000000,180.000000) scale(0.100000,-0.100000)"
fill="#000000" stroke="none">
<path d="M789 1796 c-2 -2 -22 -6 -44 -9 -58 -7 -219 -64 -279 -99 -192 -113
-310 -248 -389 -443 -130 -319 -63 -695 166 -941 137 -147 296 -237 492 -279
17 -4 80 -9 140 -12 188 -8 363 39 520 142 148 96 245 209 319 370 66 141 78
200 83 397 5 180 1 227 -17 198 -8 -12 -10 -10 -11 8 -2 26 -2 29 -13 62 -13
39 -78 173 -95 196 -9 12 -23 32 -31 45 -8 13 -59 68 -114 121 -86 85 -113
105 -200 147 -158 77 -218 92 -382 97 -77 3 -142 3 -145 0z"/>
</g>
</svg>
